#!OML:ASF H:\Dans Jumps\Project 1\Capture day 1\Session 1\subject.ASF
:FULLY-SPECIFIED
:DEGREES
440
root 0.0905113 17.698 10.7001 7.54751 -1.7175 -1.60041
lowerback -5.35715 0.568173 0.493789
upperback -0.0331759 0.679023 1.56046
thorax 2.95656 0.334531 1.38271
lowerneck -13.2217 -0.220837 -1.88484
upperneck 23.3546 -0.032609 0.68438
head 9.5551 -0.104204 0.551514
rclavicle 1.39398e-014 -2.38542e-015
rhumerus -24.5602 -14.9684 -82.23
rradius 23.5834
rwrist 40.1471
rhand -17.2147 -25.6904
rfingers 7.12502
rthumb 9.02815 -55.4772
lclavicle 1.39398e-014 -2.38542e-015
lhumerus -28.2286 1.86382 89.1636
lradius 15.7252
lwrist 3.74916
lhand -25.0487 -7.9548
lfingers 7.12502
lthumb 1.46455 22.0199
rfemur -10.3449 -2.40146 19.9466
rtibia 18.8148
rfoot -14.7744 2.9159
rtoes 17.0642
lfemur -9.49544 8.97783 -17.7112
ltibia 17.2291
lfoot -11.17 6.68199
ltoes -9.21485
441
root 0.0925577 17.6964 10.7089 7.49966 -1.70125 -1.58656
lowerback -5.41254 0.55389 0.505324
upperback -0.0577123 0.658767 1.56213
thorax 2.96286 0.324619 1.37686
lowerneck -13.2952 -0.219392 -1.90491
upperneck 23.1539 -0.0196499 0.665621
head 9.49825 -0.100969 0.549304
rclavicle 1.86361e-015 -3.57812e-015
rhumerus -24.6833 -15.1642 -82.1333
rradius 23.4864
rwrist 40.2042
rhand -17.0944 -25.6804
rfingers 7.12502
rthumb 9.14428 -55.4622
lclavicle 1.86361e-015 -3.57812e-015
lhumerus -28.1174 2.05694 89.0644
lradius 15.638
lwrist 3.50882
lhand -25.0409 -7.96175
lfingers 7.12502
lthumb 1.47202 22.0129
rfemur -10.2635 -2.37536 19.9224
rtibia 18.8313
rfoot -14.8253 2.86229
rtoes 17.0089
lfemur -9.41084 8.94913 -17.7333
ltibia 17.2283
lfoot -11.1786 6.75325
ltoes -9.16769
442
root 0.0949225 17.6947 10.7177 7.44751 -1.67801 -1.56901
lowerback -5.4703 0.539315 0.517141
upperback -0.0752847 0.637988 1.56244
thorax 2.97769 0.31443 1.3695
lowerneck -13.3844 -0.214286 -1.91099
upperneck 22.9578 -0.0017773 0.635473
head 9.44604 -0.095449 0.541438
rclavicle -9.19379e-016 -8.74653e-015
rhumerus -24.8053 -15.3569 -82.0324
rradius 23.3869
rwrist 40.2729
rhand -16.9687 -25.6523
rfingers 7.12502
rthumb 9.26553 -55.4287
lclavicle -9.19379e-016 -8.74653e-015
lhumerus -28 2.26361 88.9615
lradius 15.5523
lwrist 3.25483
lhand -25.0361 -7.9542
lfingers 7.12502
lthumb 1.47669 22.0204
rfemur -10.1756 -2.37023 19.8926
rtibia 18.8476
rfoot -14.8772 2.82254
rtoes 16.9542
lfemur -9.31664 8.91907 -17.7553
ltibia 17.2201
lfoot -11.1969 6.79813
ltoes -9.15591
443
root 0.0973955 17.6929 10.7264 7.39255 -1.6467 -1.5506
lowerback -5.52729 0.52389 0.529009
upperback -0.088507 0.615997 1.56295
thorax 2.99659 0.303622 1.36221
lowerneck -13.4492 -0.214775 -1.93175
upperneck 22.7401 0.00810503 0.61762
head 9.38194 -0.0934056 0.539262
rclavicle 1.73937e-015 -3.57812e-015
rhumerus -24.923 -15.5469 -81.9286
rradius 23.2783
rwrist 40.351
rhand -16.8402 -25.6175
rfingers 7.12502
rthumb 9.38955 -55.3884
lclavicle 1.73937e-015 -3.57812e-015
lhumerus -27.8824 2.50599 88.8485
lradius 15.4719
lwrist 2.96778
lhand -25.0171 -7.90202
lfingers 7.12502
lthumb 1.49509 22.0725
rfemur -10.084 -2.3802 19.8618
rtibia 18.8639
rfoot -14.9285 2.78811
rtoes 16.8878
lfemur -9.21667 8.8938 -17.7735
ltibia 17.2049
lfoot -11.2245 6.81104
ltoes -9.16391
444
root 0.0998756 17.6911 10.7347 7.33431 -1.6089 -1.53278
lowerback -5.58181 0.507947 0.541315
upperback -0.0977114 0.593241 1.56364
thorax 3.01825 0.292429 1.35476
lowerneck -13.5058 -0.21681 -1.95458
upperneck 22.5129 0.0150922 0.603757
head 9.31316 -0.0923394 0.538437
rclavicle -1.27719e-014 -5.1684e-015
rhumerus -25.0384 -15.7363 -81.8227
rradius 23.1622
rwrist 40.4418
rhand -16.7128 -25.5822
rfingers 7.12502
rthumb 9.51244 -55.3475
lclavicle -1.27719e-014 -5.1684e-015
lhumerus -27.7656 2.78825 88.7234
lradius 15.3963
lwrist 2.63336
lhand -25.0029 -7.8492
lfingers 7.12502
lthumb 1.5088 22.1252
rfemur -9.98829 -2.39999 19.8317
rtibia 18.8787
rfoot -14.9765 2.75727
rtoes 16.8252
lfemur -9.11346 8.8796 -17.7868
ltibia 17.1864
lfoot -11.2606 6.79126
ltoes -9.19682
445
root 0.102285 17.6893 10.7424 7.27464 -1.56716 -1.51748
lowerback -5.6335 0.492832 0.554688
upperback -0.103279 0.57148 1.56468
thorax 3.04205 0.281739 1.34714
lowerneck -13.5591 -0.217835 -1.98032
upperneck 22.2802 0.0221401 0.597873
head 9.24205 -0.0905221 0.540839
rclavicle 3.95085e-015 1.98785e-015
rhumerus -25.1496 -15.9212 -81.7157
rradius 23.038
rwrist 40.5457
rhand -16.5865 -25.5541
rfingers 7.12502
rthumb 9.63429 -55.3138
lclavicle 3.95085e-015 1.98785e-015
lhumerus -27.6424 3.09319 88.5912
lradius 15.3176
lwrist 2.26882
lhand -24.9984 -7.82062
lfingers 7.12502
lthumb 1.51312 22.1538
rfemur -9.89159 -2.42661 19.8047
rtibia 18.892
rfoot -15.022 2.73113
rtoes 16.7681
lfemur -9.01044 8.88051 -17.7946
ltibia 17.1667
lfoot -11.3041 6.74378
ltoes -9.24241
